<?xml version="1.0" encoding="utf-8"?>
<!-- Generator: Adobe Illustrator 23.1.0, SVG Export Plug-In . SVG Version: 6.00 Build 0)  -->
<svg version="1.1" id="Layer_1" xmlns="http://www.w3.org/2000/svg" xmlns:xlink="http://www.w3.org/1999/xlink" x="0px" y="0px"
	 viewBox="0 0 1239 886" style="enable-background:new 0 0 1239 886;" xml:space="preserve">
<style type="text/css">
	.st0{opacity:0.141;fill:#14EF95;enable-background:new    ;}
	.st1{fill:#14EF95;}
	.st2{fill:#0B4870;}
	.st3{fill:#2A94F4;}
	.st4{fill:#FFFFFF;}
	.st5{opacity:0.349;fill:#0E538C;enable-background:new    ;}
	.st6{opacity:0.129;enable-background:new    ;}
	.st7{fill:#FFDCB6;}
	.st8{fill:#D3D3D3;}
	.st9{fill:#0E538C;}
</style>
<g id="Wall">
	<path id="Layer" class="st0" d="M439.4,860.2c-26.7-4-306.1-50.1-392-285c-75-205.1,31.5-460.9,178-512
		c114.5-39.9,167.1,75.3,364,71c204.8-4.4,252.1-131.2,386-98c154.4,38.3,283.2,254.4,236,410c-9.9,32.7-33.6,82.5-187,184
		C780.3,791.8,633.2,889.1,439.4,860.2z"/>
	<path class="st1" d="M193.7,475.8l-10.6,18.4h21.3L193.7,475.8z"/>
	<path class="st2" d="M105.1,532l-17.6,12l19.2,9.2L105.1,532z"/>
	<path class="st1" d="M957.1,538l-17.6,12l19.2,9.2L957.1,538z"/>
	<path class="st1" d="M1061.4,496.2l17.6-12l-19.2-9.3L1061.4,496.2z"/>
	<path class="st3" d="M964.4,476.2l17.6-12l-19.2-9.3L964.4,476.2z"/>
	<path class="st1" d="M196.4,166.2l17.6-12l-19.2-9.3L196.4,166.2z"/>
	<path class="st2" d="M271.4,431.2l17.6-12l-19.2-9.3L271.4,431.2z"/>
	<path class="st3" d="M159.1,301.9l10.6,18.5l10.7-18.5H159.1z"/>
	<path class="st1" d="M884.1,136.9l10.6,18.5l10.7-18.5H884.1z"/>
</g>
<g id="Gifts">
	<path class="st1" d="M399.1,495.3h190.8v148.1H399.1V495.3z"/>
	<path class="st1" d="M460.3,495.3h130.6v148.1H460.3V495.3z"/>
	<path class="st4" d="M509.1,495.3h27.2v148.1h-27.2V495.3z"/>
	<path class="st3" d="M441.5,406.7h109.6v88.6H441.5V406.7z"/>
	<path class="st5" d="M467.4,406.7h84.1v88.6h-84.1V406.7z"/>
	<path class="st4" d="M495.5,406.7h23.9v88.6h-23.9V406.7z"/>
	<path class="st6" d="M399,495h43v148h-43V495z"/>
</g>
<g id="Person">
	<path class="st7" d="M622.5,334.9c0,0-19.2,97.5,42.6,105.8v32.1h42.2l3.8-142l-88.6,4"/>
	<path class="st2" d="M687.7,351.5c0,0-61.4,15.9-72.3-5.4c-10.9-21.3,13.8-35.9,36.3-36.3c22.6-0.4,52.6,6.3,52.6,6.3
		s11.7-10.9,21.7-6.3c10,4.6,13.8,13.4,13.8,23c0,9.6,1.7,23,17.5,35.9c15.9,13,57.7,46.8,51.8,84c-5.8,37.2-36.3,32.6-36.3,32.6
		s-68.5,2.9-68.5-23c0-25.9-3.3-53.9-3.3-53.9s13.8-14.6,3.3-24.2c-10.4-9.6-13.8,5-13.8,5S683.9,361.5,687.7,351.5z"/>
	<path class="st1" d="M659,459.1c0,0-17.7,33.7-28.3,60.5c-10.6,26.8-12.8,74-7.2,113c5.6,39.1-24,66.4-16.7,72
		c7.3,5.6,158.5,36.8,156.3-20.7c-2.2-57.5-19.5-99.4-20.7-125.6c-1.1-26.2-3.9-90.4-22.3-99.4C701.7,449.9,659,459.1,659,459.1z"/>
	<path class="st1" d="M664,306.4l76.9,40.8l22-100.3L664,306.4z"/>
	<g>
		<path class="st4" d="M127.4,642.3h827v163.5h-827V642.3z"/>
	</g>
	<path class="st7" d="M767.5,519.2c0,0,80.2,148.1-42.7,159.7c-122.9,11.6-181.7-20-181.7-20l23.3-20c0,0,161,21.3,176.5-3.9
		s-18.1-106.1-18.1-106.1L767.5,519.2z"/>
	<path class="st1" d="M719.6,548.9l58.8-20.7c0,0-31-82.8-58.8-69.2C691.8,472.6,719.6,548.9,719.6,548.9z"/>
	<path class="st7" d="M566.3,638.8c0,0-10.3-17.5-27.8-20.7c-17.5-3.2,1.3,5.2,4.5,10.3c3.2,5.2-31,3.9-59.5-1.3
		c-6.2-1.1-9.9-1.4-10.5,0c-1.6,3.5,17.4,17.1,35.9,24.8c15.6,6.5,29.6,8.4,39,9c2.3-0.8,7.5-2.8,12-8
		C564.9,647.3,566,641.2,566.3,638.8z"/>
</g>
<g id="Cake">
	<path class="st8" d="M382.7,766.3c-52.1,0-94.2-23.1-94.2-51.8s42.1-51.8,94.2-51.8s94.2,23.1,94.2,51.8S434.8,766.3,382.7,766.3z"
		/>
	<path class="st4" d="M326.4,705.4l59.5-46.5l47.9,27.8L326.4,705.4z"/>
	<path class="st1" d="M433.8,686.7v31l-99.6,15.5l-7.8-27.8"/>
</g>
<g id="Baloons">
	<g>
		<g>
			<path class="st8" d="M342.4,325c-9.4,17.7,2.6,35.6,10.4,51.3c5.2,10.5,7.6,21.3,5.7,33c-1.7,10.6-6.1,20.6-10.6,30.3
				c-8.8,18.9-17,37.2-20.5,58c-3.5,20.5-3.5,41.5-1.7,62.2c2,24.1,6.4,47.9,10.9,71.6c0.4,1.9,3.3,1.1,2.9-0.8
				c-7.9-41.6-15.9-84.6-10-127c3-21.2,10.4-40.1,19.5-59.3c7.7-16.2,15.7-33.9,12.5-52.3c-3.6-21.4-28.4-42.9-16.5-65.5
				C345.9,324.8,343.3,323.3,342.4,325L342.4,325z"/>
		</g>
	</g>
	<g>
		<g>
			<path class="st8" d="M410.1,363.4c-24.6,24.9-31.5,60-37,93.3c-3,18.3-5.9,36.6-10.9,54.5c-5.5,20-12.8,39.4-19,59.2
				c-6.9,22-12.5,44.4-13.1,67.6c0,1.9,3,1.9,3,0c1-41.2,18.1-79.3,29.7-118.2c10.2-34.1,12.1-69.9,21.8-104.1
				c5.3-18.7,13.7-36.3,27.5-50.2C413.6,364.2,411.4,362,410.1,363.4L410.1,363.4z"/>
		</g>
	</g>
	<path class="st9" d="M350.7,331.9c-30,10.6-65.5-12.5-79.2-51.6c-13.8-39.1-0.6-79.3,29.4-89.9c30.1-10.6,65.5,12.5,79.2,51.6
		C393.9,281.2,380.7,321.4,350.7,331.9z"/>
	<path class="st1" d="M484.4,326.1c-17.9,37.4-55.6,56.5-84.4,42.7c-28.7-13.8-37.4-55.1-19.5-92.5c17.9-37.4,55.6-56.5,84.4-42.7
		S502.4,288.7,484.4,326.1z"/>
	<g>
		<g>
			<path class="st8" d="M863.4,346.4c-8.9,11-14,25-17.9,38.4c-4.6,15.6-7.6,31.8-8.5,48.1c-1,18.6,3.3,36.9,7.6,54.9
				c5.6,23.2,11.2,46.2,12.3,70.2c1.2,26.8-2.2,53.5-9.7,79.2c-0.5,1.9,2.3,2.6,2.9,0.8c12.8-43.4,12.4-87.8,2.1-131.6
				c-4.8-20.7-11.7-41.9-12.3-63.2c-0.5-15.7,2.1-31.6,5.7-46.9c3.9-16.4,9.2-34.4,20-47.8C866.8,347.1,864.7,344.9,863.4,346.4
				L863.4,346.4z"/>
		</g>
	</g>
	<path class="st1" d="M927.5,307.6c-7.8,40.7-39.3,68.9-70.6,62.9c-31.3-6-50.3-43.7-42.5-84.5c7.8-40.7,39.3-68.9,70.6-62.9
		C916.3,229.1,935.3,266.8,927.5,307.6z"/>
</g>
<g>
	
		<image style="overflow:visible;" width="500" height="500" xlink:href="WhatsApp_Image_2024-04-27_at_20.05.27_14331179-removebg-preview.png"  transform="matrix(1.7081 0 0 1.7081 163.8822 30.6644)">
	</image>
</g>
</svg>
